<svg xmlns="http://www.w3.org/2000/svg" xmlns:xlink="http://www.w3.org/1999/xlink" width="200" zoomAndPan="magnify" viewBox="0 0 150 149.999998" height="200" preserveAspectRatio="xMidYMid meet" version="1.0"><defs><g/><clipPath id="4dd95e8bcb"><path d="M 0.699219 1 L 107.300781 1 L 107.300781 59.097656 L 0.699219 59.097656 Z M 0.699219 1 " clip-rule="nonzero"/></clipPath><clipPath id="99008e40f7"><path d="M 21 93 L 92 93 L 92 101.921875 L 21 101.921875 Z M 21 93 " clip-rule="nonzero"/></clipPath><clipPath id="44b0945c7c"><rect x="0" width="71" y="0" height="9"/></clipPath><clipPath id="49102853fc"><rect x="0" width="110" y="0" height="102"/></clipPath></defs><rect x="-15" width="180" fill="#ffffff" y="-15" height="179.999997" fill-opacity="1"/><rect x="-15" width="180" fill="#ffffff" y="-15" height="179.999997" fill-opacity="1"/><g transform="matrix(1, 0, 0, 1, 21, 14)"><g clip-path="url(#49102853fc)"><g clip-path="url(#4dd95e8bcb)"><path fill="#ff3131" d="M 28.332031 49.785156 L 25.574219 43.660156 C 23.53125 39.132812 25.546875 33.8125 30.070312 31.773438 L 54.253906 20.871094 C 58.777344 18.832031 64.101562 20.84375 66.140625 25.371094 L 74.800781 44.578125 C 75.46875 46.058594 75.699219 47.621094 75.550781 49.128906 C 68.828125 48.164062 61.570312 47.636719 54 47.636719 C 44.855469 47.636719 36.171875 48.40625 28.332031 49.785156 Z M 67.488281 21.273438 L 72.742188 18.902344 C 72.789062 18.453125 73.058594 18.039062 73.5 17.84375 C 74.15625 17.546875 74.929688 17.839844 75.222656 18.496094 C 75.519531 19.152344 75.226562 19.921875 74.570312 20.21875 C 74.128906 20.417969 73.640625 20.347656 73.273438 20.082031 L 68.019531 22.453125 C 67.691406 22.597656 67.308594 22.453125 67.164062 22.128906 C 67.015625 21.804688 67.160156 21.417969 67.488281 21.273438 Z M 76.617188 21.589844 C 76.914062 22.246094 76.621094 23.019531 75.964844 23.3125 C 75.527344 23.511719 75.035156 23.441406 74.667969 23.175781 L 69.414062 25.546875 C 69.085938 25.695312 68.703125 25.550781 68.558594 25.222656 C 68.410156 24.898438 68.554688 24.515625 68.882812 24.367188 L 74.136719 21.996094 C 74.183594 21.550781 74.453125 21.136719 74.894531 20.9375 C 75.550781 20.640625 76.324219 20.933594 76.617188 21.589844 Z M 78.015625 24.683594 C 78.308594 25.339844 78.015625 26.113281 77.363281 26.410156 C 76.921875 26.609375 76.429688 26.535156 76.066406 26.273438 L 70.808594 28.644531 C 70.484375 28.789062 70.101562 28.644531 69.953125 28.320312 C 69.804688 27.992188 69.953125 27.609375 70.277344 27.464844 L 75.535156 25.09375 C 75.578125 24.644531 75.851562 24.230469 76.289062 24.03125 C 76.945312 23.738281 77.71875 24.027344 78.015625 24.683594 Z M 79.410156 27.78125 C 79.707031 28.4375 79.414062 29.207031 78.757812 29.503906 C 78.316406 29.703125 77.824219 29.632812 77.460938 29.367188 L 72.203125 31.738281 C 71.878906 31.886719 71.496094 31.738281 71.347656 31.414062 C 71.203125 31.089844 71.347656 30.707031 71.671875 30.558594 L 76.929688 28.1875 C 76.972656 27.738281 77.242188 27.328125 77.6875 27.128906 C 78.339844 26.832031 79.113281 27.125 79.410156 27.78125 Z M 80.804688 30.875 C 81.101562 31.53125 80.808594 32.304688 80.152344 32.601562 C 79.710938 32.796875 79.222656 32.726562 78.855469 32.464844 L 73.597656 34.832031 C 73.273438 34.980469 72.890625 34.835938 72.742188 34.507812 C 72.597656 34.183594 72.742188 33.800781 73.066406 33.652344 L 78.324219 31.285156 C 78.367188 30.835938 78.640625 30.421875 79.082031 30.222656 C 79.738281 29.929688 80.507812 30.21875 80.804688 30.875 Z M 82.199219 33.972656 C 82.496094 34.628906 82.203125 35.398438 81.546875 35.695312 C 81.105469 35.894531 80.617188 35.824219 80.25 35.558594 L 74.996094 37.929688 C 74.667969 38.074219 74.285156 37.929688 74.140625 37.605469 C 73.992188 37.277344 74.136719 36.894531 74.464844 36.75 L 79.71875 34.378906 C 79.765625 33.929688 80.035156 33.515625 80.476562 33.316406 C 81.132812 33.023438 81.90625 33.316406 82.199219 33.972656 Z M 83.59375 37.066406 C 83.890625 37.722656 83.597656 38.496094 82.941406 38.789062 C 82.503906 38.988281 82.011719 38.917969 81.644531 38.652344 L 76.390625 41.023438 C 76.0625 41.167969 75.679688 41.027344 75.535156 40.699219 C 75.386719 40.375 75.53125 39.992188 75.859375 39.84375 L 81.113281 37.476562 C 81.160156 37.027344 81.429688 36.613281 81.871094 36.414062 C 82.527344 36.117188 83.296875 36.410156 83.59375 37.066406 Z M 85.8125 41.785156 C 86.234375 42.722656 85.816406 43.824219 84.882812 44.246094 C 83.945312 44.667969 82.84375 44.25 82.421875 43.3125 C 82 42.378906 82.414062 41.277344 83.351562 40.855469 C 84.289062 40.433594 85.390625 40.851562 85.8125 41.785156 Z M 78.535156 43.027344 C 79.46875 42.605469 80.570312 43.023438 80.992188 43.957031 C 81.414062 44.894531 81 45.996094 80.0625 46.417969 C 79.128906 46.839844 78.027344 46.421875 77.605469 45.488281 C 77.183594 44.550781 77.597656 43.449219 78.535156 43.027344 Z M 89.046875 51.835938 C 90.5 50.753906 91.058594 48.777344 90.28125 47.058594 L 74.535156 12.125 C 73.640625 10.140625 71.308594 9.257812 69.324219 10.152344 L 47.375 20.046875 C 46.304688 18.96875 44.921875 18.269531 43.441406 18.046875 L 46.375 1.917969 C 46.445312 1.519531 46.183594 1.144531 45.789062 1.070312 C 45.394531 1 45.015625 1.261719 44.941406 1.65625 L 41.972656 17.980469 C 41.140625 18.027344 40.300781 18.21875 39.496094 18.582031 C 39.246094 18.695312 39.011719 18.820312 38.785156 18.957031 L 19.21875 2.515625 C 18.910156 2.257812 18.453125 2.296875 18.191406 2.605469 C 17.933594 2.910156 17.972656 3.371094 18.28125 3.628906 L 37.589844 19.851562 C 36.046875 21.292969 35.234375 23.363281 35.371094 25.457031 L 19.691406 32.527344 C 17.707031 33.421875 16.824219 35.753906 17.71875 37.742188 L 23.570312 50.722656 C 14.246094 52.757812 6.371094 55.691406 0.714844 59.230469 C 14.472656 54.558594 33.269531 51.679688 54 51.679688 C 74.730469 51.679688 93.527344 54.558594 107.285156 59.230469 C 102.589844 56.289062 96.359375 53.769531 89.046875 51.835938 " fill-opacity="1" fill-rule="nonzero"/></g><g fill="#323232" fill-opacity="1"><g transform="translate(6.229436, 89.064042)"><g><path d="M 2.671875 -22.484375 L 12.875 -22.484375 C 15.320312 -22.484375 17.484375 -22.015625 19.359375 -21.078125 C 21.234375 -20.148438 22.6875 -18.835938 23.71875 -17.140625 C 24.757812 -15.453125 25.28125 -13.488281 25.28125 -11.25 C 25.28125 -9 24.757812 -7.023438 23.71875 -5.328125 C 22.6875 -3.640625 21.234375 -2.328125 19.359375 -1.390625 C 17.484375 -0.460938 15.320312 0 12.875 0 L 2.671875 0 Z M 12.625 -4.265625 C 14.875 -4.265625 16.664062 -4.890625 18 -6.140625 C 19.34375 -7.398438 20.015625 -9.101562 20.015625 -11.25 C 20.015625 -13.382812 19.34375 -15.078125 18 -16.328125 C 16.664062 -17.585938 14.875 -18.21875 12.625 -18.21875 L 7.875 -18.21875 L 7.875 -4.265625 Z M 12.625 -4.265625 "/></g></g></g><g fill="#323232" fill-opacity="1"><g transform="translate(30.667442, 89.064042)"><g><path d="M 13.296875 0 L 9.515625 -5.296875 L 5.59375 0 L 0.125 0 L 6.78125 -8.703125 L 0.359375 -17.28125 L 5.96875 -17.28125 L 9.640625 -12.234375 L 13.390625 -17.28125 L 18.734375 -17.28125 L 12.296875 -8.828125 L 18.984375 0 Z M 13.296875 0 "/></g></g></g><g fill="#323232" fill-opacity="1"><g transform="translate(47.68713, 89.064042)"><g><path d="M 12.8125 -17.546875 C 14.957031 -17.546875 16.6875 -16.898438 18 -15.609375 C 19.320312 -14.328125 19.984375 -12.421875 19.984375 -9.890625 L 19.984375 0 L 14.96875 0 L 14.96875 -9.125 C 14.96875 -10.488281 14.664062 -11.507812 14.0625 -12.1875 C 13.46875 -12.863281 12.601562 -13.203125 11.46875 -13.203125 C 10.207031 -13.203125 9.203125 -12.8125 8.453125 -12.03125 C 7.703125 -11.25 7.328125 -10.085938 7.328125 -8.546875 L 7.328125 0 L 2.3125 0 L 2.3125 -17.28125 L 7.09375 -17.28125 L 7.09375 -15.265625 C 7.757812 -15.992188 8.582031 -16.554688 9.5625 -16.953125 C 10.550781 -17.347656 11.632812 -17.546875 12.8125 -17.546875 Z M 12.8125 -17.546875 "/></g></g></g><g clip-path="url(#99008e40f7)"><g transform="matrix(1, 0, 0, 1, 21, 93)"><g clip-path="url(#44b0945c7c)"><g fill="#323232" fill-opacity="1"><g transform="translate(0.572905, 6.517176)"><g><path d="M 2.875 0.0625 C 2.394531 0.0625 1.957031 -0.0390625 1.5625 -0.25 C 1.164062 -0.46875 0.851562 -0.765625 0.625 -1.140625 C 0.40625 -1.515625 0.296875 -1.9375 0.296875 -2.40625 C 0.296875 -2.882812 0.410156 -3.3125 0.640625 -3.6875 C 0.867188 -4.0625 1.175781 -4.351562 1.5625 -4.5625 C 1.957031 -4.78125 2.398438 -4.890625 2.890625 -4.890625 C 3.285156 -4.890625 3.644531 -4.820312 3.96875 -4.6875 C 4.289062 -4.550781 4.566406 -4.351562 4.796875 -4.09375 L 4.21875 -3.546875 C 3.863281 -3.921875 3.429688 -4.109375 2.921875 -4.109375 C 2.597656 -4.109375 2.300781 -4.035156 2.03125 -3.890625 C 1.769531 -3.742188 1.566406 -3.539062 1.421875 -3.28125 C 1.273438 -3.03125 1.203125 -2.738281 1.203125 -2.40625 C 1.203125 -2.082031 1.273438 -1.789062 1.421875 -1.53125 C 1.566406 -1.28125 1.769531 -1.082031 2.03125 -0.9375 C 2.300781 -0.789062 2.597656 -0.71875 2.921875 -0.71875 C 3.429688 -0.71875 3.863281 -0.90625 4.21875 -1.28125 L 4.796875 -0.734375 C 4.566406 -0.472656 4.285156 -0.273438 3.953125 -0.140625 C 3.628906 -0.00390625 3.269531 0.0625 2.875 0.0625 Z M 2.875 0.0625 "/></g></g></g><g fill="#323232" fill-opacity="1"><g transform="translate(10.447189, 6.517176)"><g><path d="M 4.9375 -4.828125 L 4.9375 0 L 4.03125 0 L 4.03125 -2.0625 L 1.546875 -2.0625 L 1.546875 0 L 0.640625 0 L 0.640625 -4.828125 L 1.546875 -4.828125 L 1.546875 -2.828125 L 4.03125 -2.828125 L 4.03125 -4.828125 Z M 4.9375 -4.828125 "/></g></g></g><g fill="#323232" fill-opacity="1"><g transform="translate(20.892754, 6.517176)"><g><path d="M 3.78125 -1.109375 L 1.359375 -1.109375 L 0.890625 0 L -0.03125 0 L 2.140625 -4.828125 L 3.015625 -4.828125 L 5.203125 0 L 4.265625 0 Z M 3.484375 -1.8125 L 2.5625 -3.921875 L 1.671875 -1.8125 Z M 3.484375 -1.8125 "/></g></g></g><g fill="#323232" fill-opacity="1"><g transform="translate(30.918465, 6.517176)"><g><path d="M 4.9375 -4.828125 L 4.9375 0 L 4.203125 0 L 1.53125 -3.265625 L 1.53125 0 L 0.640625 0 L 0.640625 -4.828125 L 1.390625 -4.828125 L 4.046875 -1.5625 L 4.046875 -4.828125 Z M 4.9375 -4.828125 "/></g></g></g><g fill="#323232" fill-opacity="1"><g transform="translate(41.364029, 6.517176)"><g><path d="M 4.9375 -4.828125 L 4.9375 0 L 4.203125 0 L 1.53125 -3.265625 L 1.53125 0 L 0.640625 0 L 0.640625 -4.828125 L 1.390625 -4.828125 L 4.046875 -1.5625 L 4.046875 -4.828125 Z M 4.9375 -4.828125 "/></g></g></g><g fill="#323232" fill-opacity="1"><g transform="translate(51.809594, 6.517176)"><g><path d="M 4.265625 -0.75 L 4.265625 0 L 0.640625 0 L 0.640625 -4.828125 L 4.171875 -4.828125 L 4.171875 -4.078125 L 1.546875 -4.078125 L 1.546875 -2.8125 L 3.875 -2.8125 L 3.875 -2.078125 L 1.546875 -2.078125 L 1.546875 -0.75 Z M 4.265625 -0.75 "/></g></g></g><g fill="#323232" fill-opacity="1"><g transform="translate(61.291545, 6.517176)"><g><path d="M 0.640625 -4.828125 L 1.546875 -4.828125 L 1.546875 -0.765625 L 4.0625 -0.765625 L 4.0625 0 L 0.640625 0 Z M 0.640625 -4.828125 "/></g></g></g></g></g></g><g fill="#323232" fill-opacity="1"><g transform="translate(63.605665, 89.064042)"><g><path d="M 9.21875 -18.25 L 2.03125 -18.25 L 2.890625 -22.484375 L 22.484375 -22.484375 L 21.625 -18.25 L 14.453125 -18.25 L 10.796875 0 L 5.59375 0 Z M 9.21875 -18.25 "/></g></g></g><g fill="#323232" fill-opacity="1"><g transform="translate(81.363976, 89.064042)"><g><path d="M 27.046875 -22.484375 L 12.8125 0 L 7.703125 0 L 2.46875 -22.484375 L 7.84375 -22.484375 L 11.46875 -6.453125 L 21.65625 -22.484375 Z M 27.046875 -22.484375 "/></g></g></g></g></g></svg>