<svg xmlns="http://www.w3.org/2000/svg" xmlns:xlink="http://www.w3.org/1999/xlink" width="300" zoomAndPan="magnify" viewBox="0 0 224.87999 74.999997" height="100" preserveAspectRatio="xMidYMid meet" version="1.0"><defs><g/><clipPath id="e817c8c865"><path d="M 0.757812 0.59375 L 66.253906 0.59375 L 66.253906 36.292969 L 0.757812 36.292969 Z M 0.757812 0.59375 " clip-rule="nonzero"/></clipPath><clipPath id="8fd9680251"><path d="M 13 57 L 57 57 L 57 62.625 L 13 62.625 Z M 13 57 " clip-rule="nonzero"/></clipPath><clipPath id="1554e48a65"><path d="M 0.3125 1 L 4 1 L 4 5 L 0.3125 5 Z M 0.3125 1 " clip-rule="nonzero"/></clipPath><clipPath id="d5bcb5fcb7"><rect x="0" width="44" y="0" height="6"/></clipPath><clipPath id="8c8f3647a4"><rect x="0" width="68" y="0" height="63"/></clipPath></defs><g transform="matrix(1, 0, 0, 1, 74, 6)"><g clip-path="url(#8c8f3647a4)"><g clip-path="url(#e817c8c865)"><path fill="#ff3131" d="M 17.738281 30.570312 L 16.039062 26.804688 C 14.785156 24.027344 16.023438 20.753906 18.804688 19.503906 L 33.664062 12.804688 C 36.441406 11.550781 39.714844 12.789062 40.964844 15.570312 L 46.285156 27.371094 C 46.695312 28.28125 46.835938 29.242188 46.746094 30.167969 C 42.617188 29.574219 38.160156 29.25 33.507812 29.25 C 27.890625 29.25 22.550781 29.722656 17.738281 30.570312 Z M 41.792969 13.050781 L 45.023438 11.597656 C 45.050781 11.320312 45.214844 11.066406 45.488281 10.945312 C 45.890625 10.761719 46.363281 10.941406 46.546875 11.34375 C 46.726562 11.75 46.546875 12.222656 46.144531 12.402344 C 45.875 12.527344 45.574219 12.484375 45.347656 12.320312 L 42.121094 13.777344 C 41.917969 13.867188 41.683594 13.777344 41.59375 13.578125 C 41.503906 13.378906 41.59375 13.140625 41.792969 13.050781 Z M 47.402344 13.246094 C 47.585938 13.648438 47.40625 14.125 47.003906 14.304688 C 46.730469 14.429688 46.429688 14.382812 46.207031 14.222656 L 42.976562 15.679688 C 42.777344 15.769531 42.542969 15.679688 42.449219 15.480469 C 42.359375 15.277344 42.449219 15.042969 42.648438 14.953125 L 45.878906 13.496094 C 45.90625 13.222656 46.074219 12.96875 46.34375 12.84375 C 46.746094 12.664062 47.222656 12.84375 47.402344 13.246094 Z M 48.261719 15.148438 C 48.441406 15.550781 48.261719 16.027344 47.859375 16.207031 C 47.589844 16.328125 47.289062 16.285156 47.0625 16.125 L 43.835938 17.578125 C 43.632812 17.667969 43.398438 17.582031 43.308594 17.378906 C 43.21875 17.179688 43.308594 16.945312 43.507812 16.855469 L 46.738281 15.398438 C 46.765625 15.125 46.929688 14.871094 47.203125 14.746094 C 47.605469 14.566406 48.078125 14.746094 48.261719 15.148438 Z M 49.117188 17.050781 C 49.300781 17.453125 49.121094 17.925781 48.71875 18.109375 C 48.445312 18.230469 48.144531 18.1875 47.921875 18.023438 L 44.691406 19.480469 C 44.492188 19.570312 44.257812 19.480469 44.164062 19.28125 C 44.074219 19.082031 44.164062 18.847656 44.363281 18.757812 L 47.59375 17.300781 C 47.621094 17.023438 47.789062 16.769531 48.058594 16.648438 C 48.460938 16.46875 48.9375 16.644531 49.117188 17.050781 Z M 49.976562 18.953125 C 50.15625 19.355469 49.976562 19.828125 49.574219 20.011719 C 49.304688 20.132812 49.003906 20.089844 48.777344 19.925781 L 45.546875 21.382812 C 45.347656 21.472656 45.113281 21.382812 45.023438 21.183594 C 44.933594 20.984375 45.023438 20.75 45.222656 20.660156 L 48.453125 19.203125 C 48.480469 18.925781 48.644531 18.671875 48.917969 18.550781 C 49.320312 18.371094 49.792969 18.546875 49.976562 18.953125 Z M 50.832031 20.855469 C 51.015625 21.257812 50.835938 21.730469 50.429688 21.914062 C 50.160156 22.035156 49.859375 21.992188 49.636719 21.828125 L 46.40625 23.285156 C 46.207031 23.375 45.96875 23.285156 45.878906 23.085938 C 45.789062 22.886719 45.878906 22.652344 46.078125 22.558594 L 49.308594 21.105469 C 49.335938 20.828125 49.503906 20.574219 49.773438 20.453125 C 50.175781 20.269531 50.652344 20.449219 50.832031 20.855469 Z M 51.691406 22.753906 C 51.871094 23.160156 51.691406 23.632812 51.289062 23.8125 C 51.019531 23.9375 50.71875 23.894531 50.492188 23.730469 L 47.261719 25.1875 C 47.0625 25.277344 46.828125 25.1875 46.738281 24.988281 C 46.648438 24.789062 46.738281 24.550781 46.9375 24.460938 L 50.167969 23.007812 C 50.195312 22.730469 50.359375 22.476562 50.628906 22.355469 C 51.035156 22.171875 51.507812 22.351562 51.691406 22.753906 Z M 53.050781 25.65625 C 53.3125 26.230469 53.054688 26.90625 52.480469 27.164062 C 51.90625 27.425781 51.226562 27.167969 50.96875 26.59375 C 50.710938 26.019531 50.964844 25.34375 51.542969 25.082031 C 52.117188 24.824219 52.792969 25.078125 53.050781 25.65625 Z M 48.582031 26.417969 C 49.15625 26.160156 49.832031 26.414062 50.089844 26.988281 C 50.351562 27.566406 50.09375 28.242188 49.519531 28.5 C 48.945312 28.761719 48.269531 28.503906 48.007812 27.929688 C 47.75 27.355469 48.003906 26.675781 48.582031 26.417969 Z M 55.039062 31.828125 C 55.929688 31.164062 56.273438 29.949219 55.796875 28.894531 L 46.125 7.433594 C 45.574219 6.210938 44.140625 5.671875 42.921875 6.21875 L 29.433594 12.300781 C 28.777344 11.636719 27.929688 11.207031 27.019531 11.070312 L 28.820312 1.160156 C 28.863281 0.914062 28.703125 0.683594 28.460938 0.640625 C 28.21875 0.59375 27.984375 0.753906 27.941406 1 L 26.117188 11.027344 C 25.605469 11.058594 25.089844 11.175781 24.59375 11.398438 C 24.441406 11.46875 24.296875 11.542969 24.15625 11.628906 L 12.136719 1.527344 C 11.945312 1.367188 11.664062 1.390625 11.507812 1.582031 C 11.347656 1.769531 11.371094 2.050781 11.5625 2.210938 L 23.425781 12.179688 C 22.476562 13.0625 21.976562 14.335938 22.0625 15.625 L 12.425781 19.964844 C 11.207031 20.515625 10.664062 21.949219 11.214844 23.167969 L 14.808594 31.144531 C 9.082031 32.394531 4.242188 34.199219 0.769531 36.371094 C 9.21875 33.503906 20.769531 31.734375 33.507812 31.734375 C 46.242188 31.734375 57.792969 33.503906 66.246094 36.371094 C 63.359375 34.566406 59.53125 33.019531 55.039062 31.828125 " fill-opacity="1" fill-rule="nonzero"/></g><g fill="#323232" fill-opacity="1"><g transform="translate(4.155808, 54.702884)"><g><path d="M 1.640625 -13.8125 L 7.90625 -13.8125 C 9.40625 -13.8125 10.726562 -13.523438 11.875 -12.953125 C 13.03125 -12.378906 13.925781 -11.570312 14.5625 -10.53125 C 15.207031 -9.5 15.53125 -8.289062 15.53125 -6.90625 C 15.53125 -5.519531 15.207031 -4.304688 14.5625 -3.265625 C 13.925781 -2.234375 13.03125 -1.429688 11.875 -0.859375 C 10.726562 -0.285156 9.40625 0 7.90625 0 L 1.640625 0 Z M 7.75 -2.625 C 9.132812 -2.625 10.238281 -3.007812 11.0625 -3.78125 C 11.882812 -4.550781 12.296875 -5.59375 12.296875 -6.90625 C 12.296875 -8.21875 11.882812 -9.257812 11.0625 -10.03125 C 10.238281 -10.800781 9.132812 -11.1875 7.75 -11.1875 L 4.828125 -11.1875 L 4.828125 -2.625 Z M 7.75 -2.625 "/></g></g></g><g fill="#323232" fill-opacity="1"><g transform="translate(19.170707, 54.702884)"><g><path d="M 8.171875 0 L 5.84375 -3.25 L 3.4375 0 L 0.078125 0 L 4.15625 -5.34375 L 0.21875 -10.609375 L 3.671875 -10.609375 L 5.921875 -7.515625 L 8.234375 -10.609375 L 11.5 -10.609375 L 7.5625 -5.421875 L 11.65625 0 Z M 8.171875 0 "/></g></g></g><g fill="#323232" fill-opacity="1"><g transform="translate(29.627735, 54.702884)"><g><path d="M 7.875 -10.78125 C 9.1875 -10.78125 10.25 -10.382812 11.0625 -9.59375 C 11.875 -8.800781 12.28125 -7.628906 12.28125 -6.078125 L 12.28125 0 L 9.203125 0 L 9.203125 -5.609375 C 9.203125 -6.453125 9.015625 -7.078125 8.640625 -7.484375 C 8.273438 -7.898438 7.742188 -8.109375 7.046875 -8.109375 C 6.265625 -8.109375 5.644531 -7.867188 5.1875 -7.390625 C 4.726562 -6.910156 4.5 -6.195312 4.5 -5.25 L 4.5 0 L 1.421875 0 L 1.421875 -10.609375 L 4.359375 -10.609375 L 4.359375 -9.375 C 4.765625 -9.820312 5.269531 -10.164062 5.875 -10.40625 C 6.476562 -10.65625 7.144531 -10.78125 7.875 -10.78125 Z M 7.875 -10.78125 "/></g></g></g><g clip-path="url(#8fd9680251)"><g transform="matrix(1, 0, 0, 1, 13, 57)"><g clip-path="url(#d5bcb5fcb7)"><g clip-path="url(#1554e48a65)"><g fill="#323232" fill-opacity="1"><g transform="translate(0.582951, 4.125367)"><g><path d="M 1.765625 0.046875 C 1.472656 0.046875 1.203125 -0.015625 0.953125 -0.140625 C 0.710938 -0.273438 0.523438 -0.457031 0.390625 -0.6875 C 0.253906 -0.925781 0.1875 -1.191406 0.1875 -1.484375 C 0.1875 -1.773438 0.253906 -2.035156 0.390625 -2.265625 C 0.523438 -2.492188 0.710938 -2.671875 0.953125 -2.796875 C 1.203125 -2.929688 1.476562 -3 1.78125 -3 C 2.019531 -3 2.238281 -2.957031 2.4375 -2.875 C 2.632812 -2.789062 2.804688 -2.671875 2.953125 -2.515625 L 2.59375 -2.171875 C 2.375 -2.410156 2.109375 -2.53125 1.796875 -2.53125 C 1.597656 -2.53125 1.414062 -2.484375 1.25 -2.390625 C 1.09375 -2.296875 0.96875 -2.171875 0.875 -2.015625 C 0.78125 -1.859375 0.734375 -1.679688 0.734375 -1.484375 C 0.734375 -1.285156 0.78125 -1.101562 0.875 -0.9375 C 0.96875 -0.78125 1.09375 -0.65625 1.25 -0.5625 C 1.414062 -0.476562 1.597656 -0.4375 1.796875 -0.4375 C 2.109375 -0.4375 2.375 -0.554688 2.59375 -0.796875 L 2.953125 -0.453125 C 2.804688 -0.296875 2.632812 -0.171875 2.4375 -0.078125 C 2.238281 0.00390625 2.015625 0.046875 1.765625 0.046875 Z M 1.765625 0.046875 "/></g></g></g></g><g fill="#323232" fill-opacity="1"><g transform="translate(6.649788, 4.125367)"><g><path d="M 3.03125 -2.96875 L 3.03125 0 L 2.484375 0 L 2.484375 -1.265625 L 0.953125 -1.265625 L 0.953125 0 L 0.390625 0 L 0.390625 -2.96875 L 0.953125 -2.96875 L 0.953125 -1.734375 L 2.484375 -1.734375 L 2.484375 -2.96875 Z M 3.03125 -2.96875 "/></g></g></g><g fill="#323232" fill-opacity="1"><g transform="translate(13.067624, 4.125367)"><g><path d="M 2.328125 -0.6875 L 0.84375 -0.6875 L 0.546875 0 L -0.015625 0 L 1.3125 -2.96875 L 1.859375 -2.96875 L 3.1875 0 L 2.609375 0 Z M 2.140625 -1.125 L 1.578125 -2.40625 L 1.03125 -1.125 Z M 2.140625 -1.125 "/></g></g></g><g fill="#323232" fill-opacity="1"><g transform="translate(19.227498, 4.125367)"><g><path d="M 3.03125 -2.96875 L 3.03125 0 L 2.578125 0 L 0.9375 -2 L 0.9375 0 L 0.390625 0 L 0.390625 -2.96875 L 0.84375 -2.96875 L 2.484375 -0.953125 L 2.484375 -2.96875 Z M 3.03125 -2.96875 "/></g></g></g><g fill="#323232" fill-opacity="1"><g transform="translate(25.645334, 4.125367)"><g><path d="M 3.03125 -2.96875 L 3.03125 0 L 2.578125 0 L 0.9375 -2 L 0.9375 0 L 0.390625 0 L 0.390625 -2.96875 L 0.84375 -2.96875 L 2.484375 -0.953125 L 2.484375 -2.96875 Z M 3.03125 -2.96875 "/></g></g></g><g fill="#323232" fill-opacity="1"><g transform="translate(32.063169, 4.125367)"><g><path d="M 2.625 -0.46875 L 2.625 0 L 0.390625 0 L 0.390625 -2.96875 L 2.5625 -2.96875 L 2.5625 -2.5 L 0.953125 -2.5 L 0.953125 -1.734375 L 2.375 -1.734375 L 2.375 -1.28125 L 0.953125 -1.28125 L 0.953125 -0.46875 Z M 2.625 -0.46875 "/></g></g></g><g fill="#323232" fill-opacity="1"><g transform="translate(37.888953, 4.125367)"><g><path d="M 0.390625 -2.96875 L 0.953125 -2.96875 L 0.953125 -0.46875 L 2.5 -0.46875 L 2.5 0 L 0.390625 0 Z M 0.390625 -2.96875 "/></g></g></g></g></g></g><g fill="#323232" fill-opacity="1"><g transform="translate(39.408204, 54.702884)"><g><path d="M 5.65625 -11.203125 L 1.25 -11.203125 L 1.78125 -13.8125 L 13.8125 -13.8125 L 13.28125 -11.203125 L 8.875 -11.203125 L 6.625 0 L 3.4375 0 Z M 5.65625 -11.203125 "/></g></g></g><g fill="#323232" fill-opacity="1"><g transform="translate(50.319048, 54.702884)"><g><path d="M 16.609375 -13.8125 L 7.875 0 L 4.734375 0 L 1.515625 -13.8125 L 4.8125 -13.8125 L 7.046875 -3.96875 L 13.296875 -13.8125 Z M 16.609375 -13.8125 "/></g></g></g></g></g></svg>